<?xml version="1.0" encoding="utf-8"?>
<!-- Generator: Adobe Illustrator 24.1.0, SVG Export Plug-In . SVG Version: 6.00 Build 0)  -->
<svg version="1.1" id="Layer_1" xmlns="http://www.w3.org/2000/svg" xmlns:xlink="http://www.w3.org/1999/xlink" x="0px" y="0px"
	 viewBox="0 0 324.8 34" style="enable-background:new 0 0 324.8 34;" xml:space="preserve">
<style type="text/css">
	.st0{fill:#2D4059;}
</style>
<g id="SvgjsG8951" transform="matrix(2.287890322401566,0,0,2.287890322401566,9.588177952807882,-12.629155626969718)">
	<path class="st0" d="M7.3,8.3L5.2,9.4C4.8,8.6,3.4,7.8,1.9,7.8C0,7.8-1,8.6-1,9.7c0,1.2,1.4,1.6,3.1,1.8c2.9,0.4,5.6,1.1,5.6,4.5
		c0,3.1-2.8,4.5-5.9,4.5c-2.9,0-5.1-0.9-6.1-3.4l2.2-1.1c0.6,1.5,2.2,2.2,3.9,2.2c1.7,0,3.2-0.6,3.2-2.1c0-1.3-1.4-1.9-3.2-2.1
		c-2.9-0.3-5.5-1.1-5.5-4.2c0-2.9,2.8-4.1,5.4-4.1C4,5.5,6.3,6.1,7.3,8.3z M30,6l-5,14h-2.2L21,15.6l-1.5-4.4L18,15.6L16.3,20h-2.2
		L8.9,6h3l3.3,10.1L18.6,6h1.7l3.5,10.1L27,6H30z"/>
</g>
<g id="SvgjsG8952" transform="matrix(2.460953042881349,0,0,2.460953042881349,85.25937608536302,-15.558737807107422)">
	<path class="st0" d="M14.5,19.8c0.1,0.1,0,0.2-0.1,0.2h-1c-0.1,0-0.2-0.1-0.2-0.2l-1.2-2.5H3.7l-1.2,2.5C2.5,19.9,2.4,20,2.3,20
		H1.3c-0.1,0-0.2-0.1-0.1-0.2L7.5,6.5c0.1-0.1,0.1-0.2,0.2-0.2h0.2c0.1,0,0.2,0,0.2,0.2L14.5,19.8z M4.3,16.1h7L7.8,8.6L4.3,16.1z
		 M21,6.4c4.6,0,6.9,3.4,6.9,6.7c0,3.5-2.3,6.9-6.9,6.9h-4.6c-0.2,0-0.2-0.1-0.2-0.2V6.7c0-0.2,0.1-0.2,0.2-0.2L21,6.4L21,6.4z
		 M21.1,18.7c3.5,0,5.5-2.8,5.4-5.6c0-2.8-1.9-5.4-5.4-5.4h-3.6l0,11H21.1L21.1,18.7z M42.3,6.4c0.1,0,0.2,0.1,0.2,0.3l-6.3,13.2
		c-0.1,0.1-0.1,0.2-0.3,0.2h-0.1c-0.1,0-0.2-0.1-0.2-0.2L29.3,6.7c-0.1-0.2,0-0.3,0.2-0.3h1.1c0.1,0,0.2,0.1,0.3,0.3l5,10.9l5-10.9
		C41,6.5,41,6.4,41.2,6.4L42.3,6.4L42.3,6.4z M45.4,6.4h-0.9c-0.2,0-0.2,0.1-0.2,0.2v13.1c0,0.1,0.1,0.2,0.2,0.2h0.9
		c0.1,0,0.2-0.1,0.2-0.2V6.7C45.6,6.5,45.5,6.4,45.4,6.4z M47.8,17.7l0.5-0.6c0.2-0.2,0.3-0.1,0.4,0c0.3,0.3,1.6,1.7,3.5,1.7
		c2.2,0,3.2-1.2,3.2-2.4c0-1.7-2-2.2-3.7-2.8c-2-0.8-3.7-1.7-3.7-3.7c0-1.7,1.2-3.6,4.3-3.6c2.1,0,3.6,1.3,4,1.6
		c0.1,0.1,0.2,0.3,0.1,0.4l-0.4,0.6c-0.1,0.1-0.2,0.2-0.4,0.1c-0.3-0.3-1.6-1.4-3.2-1.4c-1.9,0-3,1-3,2.3c0,1.5,1.5,2,3.5,2.7
		c1.8,0.7,4,1.6,4,3.8c0,2-1.8,3.7-4.5,3.7c-2.5,0-4-1.6-4.4-2C47.7,18,47.6,17.9,47.8,17.7L47.8,17.7z M65.5,20.1
		c3.8,0,6.9-3,6.9-6.9c0-3.8-3.1-6.9-6.9-6.9c-3.8,0-7,3.1-7,6.9C58.5,17.1,61.7,20.1,65.5,20.1z M65.5,18.8c-3.1,0-5.6-2.5-5.6-5.6
		s2.6-5.6,5.6-5.6c3.1,0,5.6,2.5,5.6,5.6S68.6,18.8,65.5,18.8z M84.3,19.8c0.1,0.1,0,0.2-0.1,0.2h-0.9c-0.3,0-0.5-0.2-0.6-0.4
		l-3-4.3h-0.1h-3.9v4.4c0,0.2-0.1,0.2-0.2,0.2h-0.9c-0.2,0-0.2-0.1-0.2-0.2V6.7c0-0.2,0.1-0.2,0.2-0.2h5c3.2,0,4.6,2.5,4.6,4.5
		c0,1.7-1.1,3.7-3.3,4.3L84.3,19.8z M75.8,7.7l0,6.4h3.8c2.3,0,3.4-1.6,3.4-3.2c0-1.6-1.1-3.2-3.4-3.2H75.8L75.8,7.7z M97.2,6.4
		c0.1,0,0.2,0.1,0.1,0.2l-5.4,7.7v5.4c0,0.2-0.1,0.2-0.2,0.2H91c-0.3,0-0.4-0.2-0.4-0.5v-5.1l-5.4-7.7c-0.1-0.1,0-0.2,0.1-0.2h1.2
		c0.1,0,0.2,0.1,0.2,0.2l4.6,6.5l4.6-6.5c0.1-0.1,0.1-0.2,0.2-0.2L97.2,6.4L97.2,6.4z"/>
</g>
</svg>
